<svg xmlns="http://www.w3.org/2000/svg" viewBox="0 0 36 36"><title>github_mark_darkfg</title><path d="M18,3.28A15.1,15.1,0,0,0,13.23,32.7c.75.14,1-.33,1-.73s0-1.55,0-2.81c-4.2.91-5.09-1.78-5.09-1.78a4,4,0,0,0-1.67-2.21c-1.37-.94.1-.92.1-.92a3.19,3.19,0,0,1,2.31,1.56,3.21,3.21,0,0,0,4.4,1.25,3.12,3.12,0,0,1,1-2c-3.36-.39-6.88-1.68-6.88-7.47a5.88,5.88,0,0,1,1.55-4,5.45,5.45,0,0,1,.15-4s1.27-.41,4.15,1.54a14.54,14.54,0,0,1,7.56,0c2.88-1.95,4.15-1.54,4.15-1.54a5.45,5.45,0,0,1,.15,4,5.83,5.83,0,0,1,1.55,4c0,5.8-3.53,7.08-6.89,7.45a3.62,3.62,0,0,1,1,2.8c0,2,0,3.64,0,4.14s.28.87,1,.73A15.1,15.1,0,0,0,18,3.28Z" fill="#181616" fill-rule="evenodd"/><path d="M8.62,25c0,.08-.15.1-.26.05s-.17-.15-.13-.23.15-.1.26-.05.17.16.13.23Zm-.18-.14" fill="#181616"/><path d="M9.23,25.63c-.07.07-.21,0-.31-.07a.24.24,0,0,1,0-.31c.07-.07.21,0,.31.07s.12.25,0,.31Zm-.14-.15" fill="#181616"/><path d="M9.83,26.5c-.09.07-.25,0-.34-.13a.27.27,0,0,1,0-.36.28.28,0,0,1,.34.13c.09.14.09.3,0,.36Zm0,0" fill="#181616"/><path d="M10.64,27.34a.28.28,0,0,1-.38-.05c-.14-.13-.17-.3-.09-.39s.26-.07.39.06.17.29.08.38Zm0,0" fill="#181616"/><path d="M11.77,27.83c0,.12-.21.17-.38.12s-.28-.19-.25-.31.21-.17.38-.12.28.19.25.31Zm0,0" fill="#181616"/><path d="M13,27.92c0,.13-.14.23-.32.23s-.32-.1-.32-.22.14-.23.32-.23.32.1.32.22Zm0,0" fill="#181616"/><path d="M14.15,27.73c0,.12-.1.24-.28.28s-.34-.05-.36-.17.11-.25.28-.28.34,0,.36.17Zm0,0" fill="#181616"/></svg>